<svg xmlns="http://www.w3.org/2000/svg" height="655" width="655"><rect id="backgroundrect" width="100%" height="100%" x="0" y="0" fill="none" stroke="none" class="" style=""/><g class="currentLayer" style=""><title>Layer 1</title><path fill="none" stroke="#f4ba32" stroke-opacity="1" stroke-width="35" stroke-dasharray="none" stroke-linejoin="miter" stroke-linecap="butt" stroke-dashoffset="" fill-rule="nonzero" opacity="1" marker-start="" marker-mid="" marker-end="" d="M15.111114501953125,327.83333253860474 C15.111114501953125,157.39134358832848 153.93984596505348,19.333332538604736 325.33334159851074,19.333332538604736 C496.72683723196803,19.333332538604736 635.5555686950684,157.39134358832848 635.5555686950684,327.83333253860474 C635.5555686950684,498.275321488881 496.72683723196803,636.3333325386047 325.33334159851074,636.3333325386047 C153.93984596505348,636.3333325386047 15.111114501953125,498.275321488881 15.111114501953125,327.83333253860474 z" id="svg_17" class=""/><g class="" stroke="#ffffff" stroke-opacity="1"><path d="m178.34722101609998,446.61109161548904 h299.7499955948442 v30.277777332812548 h-299.7499955948442 zm0,0 " fill="#ade5ff" id="svg_1" class="" stroke="#ffffff" stroke-opacity="1"/><path d="m178.34722101609998,301.2777604179888 h299.7499955948442 v30.277777332812548 h-299.7499955948442 zm0,0 " fill="#ade5ff" id="svg_2" class="" stroke="#ffffff" stroke-opacity="1"/><path d="m142.01388821672492,145.34720715400422 h36.33333279937506 v372.41666119359434 h-36.33333279937506 zm0,0 " fill="#ade5ff" id="svg_3" class="" stroke="#ffffff" stroke-opacity="1"/><path d="m478.0972166109442,145.34720715400422 h36.33333279937506 v372.41666119359434 h-36.33333279937506 zm0,0 " fill="#ade5ff" id="svg_4" class="" stroke="#ffffff" stroke-opacity="1"/><g fill="#ffb954" id="svg_5" class="" stroke="#ffffff" stroke-opacity="1"><path d="m219.22222041539692,373.94442601673893 h72.66666559875011 v72.66666559875011 h-72.66666559875011 zm0,0 " id="svg_6" stroke="#ffffff" stroke-opacity="1"/><path d="m291.9864606932686,373.94442601673893 h72.66666559875011 v72.66666559875011 h-72.66666559875011 zm0,0 " id="svg_7" stroke="#ffffff" stroke-opacity="1"/><path d="m364.74774434618377,373.94442601673893 h72.66666559875011 v72.66666559875011 h-72.66666559875011 zm0,0 " id="svg_8" stroke="#ffffff" stroke-opacity="1"/><path d="m219.22222041539692,228.61109481923873 h72.66666559875011 v72.66666559875011 h-72.66666559875011 zm0,0 " id="svg_9" stroke="#ffffff" stroke-opacity="1"/><path d="m291.9864606932686,228.61109481923873 h72.66666559875011 v72.66666559875011 h-72.66666559875011 zm0,0 " id="svg_10" stroke="#ffffff" stroke-opacity="1"/><path d="m255.6028622418545,155.94442922048862 h72.66666559875011 v72.66666559875011 h-72.66666559875011 zm0,0 " id="svg_11" stroke="#ffffff" stroke-opacity="1"/><path d="m328.3671025197262,155.94442922048862 h72.66666559875011 v72.66666559875011 h-72.66666559875011 zm0,0 " id="svg_12" stroke="#ffffff" stroke-opacity="1"/><path d="m364.74774434618377,228.61109481923873 h72.66666559875011 v72.66666559875011 h-72.66666559875011 zm0,0 " id="svg_13" stroke="#ffffff" stroke-opacity="1"/></g><path d="m258.33495855587,469.31942461509846 c-1.992893144323355,0 -3.944389754532856,0.8101667103159315 -5.3518340671822475,2.217611022965323 c-1.407442798760525,1.407442798760525 -2.21761026602089,3.361897547815441 -2.21761026602089,5.351833310237814 s0.8072100853593824,3.9443905114772884 2.21761026602089,5.351833310237814 c1.4074443126493916,1.4074443126493916 3.358940922858892,2.217611022965323 5.3518340671822475,2.217611022965323 c1.9958497692799044,0 3.9414331295763065,-0.8101667103159315 5.348876685281264,-2.217611022965323 c1.4074435557049583,-1.407442798760525 2.2205676479218726,-3.361897547815441 2.2205676479218726,-5.351833310237814 s-0.8101674672603645,-3.9443905114772884 -2.2205676479218726,-5.351833310237814 c-1.4074435557049583,-1.4074443126493916 -3.353026916001361,-2.217611022965323 -5.348876685281264,-2.217611022965323 zm0,0 " id="svg_14" class="" stroke="#ffffff" stroke-opacity="1"/><path d="m410.16145372044605,323.9860934175982 c-1.9899357624223728,0 -3.9443905114772884,0.8101667103159315 -5.351833310237814,2.217611022965323 c-1.4074443126493916,1.407442798760525 -2.217611022965323,3.361897547815441 -2.217611022965323,5.351833310237814 s0.8101667103159315,3.9443905114772884 2.217611022965323,5.351833310237814 c1.407442798760525,1.4074443126493916 3.361897547815441,2.217611022965323 5.351833310237814,2.217611022965323 s3.9443905114772884,-0.8101667103159315 5.351833310237814,-2.217611022965323 c1.4074443126493916,-1.407442798760525 2.217611022965323,-3.361897547815441 2.217611022965323,-5.351833310237814 s-0.8101667103159315,-3.9443905114772884 -2.217611022965323,-5.351833310237814 c-1.407442798760525,-1.4074443126493916 -3.361897547815441,-2.217611022965323 -5.351833310237814,-2.217611022965323 zm0,0 " id="svg_15" class="" stroke="#ffffff" stroke-opacity="1"/><path d="m514.4305494103193,137.77776282080106 h-36.33333279937506 c-4.180935646889886,0 -7.569444333203137,3.3885086863132505 -7.569444333203137,7.569444333203137 v148.36110893078148 h-25.543917999604037 v-65.09722126554698 c0,-4.180935646889886 -3.3885086863132505,-7.569444333203137 -7.569444333203137,-7.569444333203137 h-28.81119749325444 v-65.09722126554698 c0,-4.180935646889886 -3.3914653112697994,-7.569444333203137 -7.569444333203137,-7.569444333203137 h-72.66666559875011 c-0.017740506683728244,0 -0.03252438841090731,0.0029566249565491543 -0.04730902708251974,0.0029566249565491543 c-0.017740506683728244,0 -0.03252438841090731,-0.0029566249565491543 -0.0502656520390689,-0.0029566249565491543 h-72.66666559875011 c-4.177978264988904,0 -7.569444333203137,3.3885086863132505 -7.569444333203137,7.569444333203137 v65.09722126554698 h-28.81119749325444 c-4.180935646889886,0 -7.569444333203137,3.3885086863132505 -7.569444333203137,7.569444333203137 v65.09722126554698 h-25.736110732890666 v-148.36110893078148 c0,-4.180935646889886 -3.3885086863132505,-7.569444333203137 -7.569444333203137,-7.569444333203137 h-36.33333279937506 c-4.180935646889886,0 -7.569444333203137,3.3885086863132505 -7.569444333203137,7.569444333203137 v372.41666119359434 c0,4.180935646889886 3.3885086863132505,7.569444333203137 7.569444333203137,7.569444333203137 h36.33333279937506 c4.180935646889886,0 7.569444333203137,-3.3885086863132505 7.569444333203137,-7.569444333203137 v-33.3055550660938 h45.41666599921882 c4.180935646889886,0 7.569444333203137,-3.3885086863132505 7.569444333203137,-7.569444333203137 s-3.3885086863132505,-7.569444333203137 -7.569444333203137,-7.569444333203137 h-45.41666599921882 v-15.138888666406274 h284.61110692843795 v15.138888666406274 h-184.31596951349638 c-4.180935646889886,0 -7.569444333203137,3.3885086863132505 -7.569444333203137,7.569444333203137 s3.3885086863132505,7.569444333203137 7.569444333203137,7.569444333203137 h184.31596951349638 v33.3055550660938 c0,4.180935646889886 3.3885086863132505,7.569444333203137 7.569444333203137,7.569444333203137 h36.33333279937506 c4.180935646889886,0 7.569444333203137,-3.3885086863132505 7.569444333203137,-7.569444333203137 v-372.41666119359434 c0,-4.180935646889886 -3.3885086863132505,-7.569444333203137 -7.569444333203137,-7.569444333203137 zm-84.5855837985885,128.68055366445333 h-19.680555266328156 c-4.180934889945453,0 -7.569444333203137,3.3885086863132505 -7.569444333203137,7.569444333203137 s3.388509443257683,7.569444333203137 7.569444333203137,7.569444333203137 h19.680555266328156 v12.111110933125019 h-57.52777693234384 v-57.52777693234384 h57.52777693234384 zm-130.289060585259,-30.277777332812548 h57.52777693234384 v30.277777332812548 h-19.680555266328156 c-4.180934889945453,0 -7.569444333203137,3.3885086863132505 -7.569444333203137,7.569444333203137 s3.388509443257683,7.569444333203137 7.569444333203137,7.569444333203137 h19.680555266328156 v12.111110933125019 h-57.52777693234384 zm36.38064182645758,-72.66666559875011 h57.52777693234384 v30.277777332812548 h-19.680555266328156 c-4.180934889945453,0 -7.569444333203137,3.3885086863132505 -7.569444333203137,7.569444333203137 s3.388509443257683,7.569444333203137 7.569444333203137,7.569444333203137 h19.680555266328156 v12.111110933125019 h-57.52777693234384 zm-72.7642402778717,0 h57.52777693234384 v30.277777332812548 h-19.680555266328156 c-4.180935646889886,0 -7.569444333203137,3.3885086863132505 -7.569444333203137,7.569444333203137 s3.3885086863132505,7.569444333203137 7.569444333203137,7.569444333203137 h19.680555266328156 v12.111110933125019 h-57.52777693234384 zm-36.38064182645758,72.66666559875011 h57.52777693234384 v30.277777332812548 h-19.680555266328156 c-4.180935646889886,0 -7.569444333203137,3.3885086863132505 -7.569444333203137,7.569444333203137 s3.3885086863132505,7.569444333203137 7.569444333203137,7.569444333203137 h19.680555266328156 v12.111110933125019 h-57.52777693234384 zm-56.01388806570321,274.01388486195356 h-21.194444132968783 v-357.27777252718806 h21.194444132968783 zm56.01388806570321,-71.15277673210949 v-57.52777693234384 h57.52777693234384 v30.277777332812548 h-19.680555266328156 c-4.180935646889886,0 -7.569444333203137,3.3885086863132505 -7.569444333203137,7.569444333203137 s3.3885086863132505,7.569444333203137 7.569444333203137,7.569444333203137 h19.680555266328156 v12.111110933125019 zm72.7642402778717,0 v-57.52777693234384 h57.52777693234384 v30.277777332812548 h-19.680555266328156 c-4.180934889945453,0 -7.569444333203137,3.3885086863132505 -7.569444333203137,7.569444333203137 s3.388509443257683,7.569444333203137 7.569444333203137,7.569444333203137 h19.680555266328156 v12.111110933125019 zm72.76128365291515,0 v-57.52777693234384 h57.52777693234384 v30.277777332812548 h-19.680555266328156 c-4.180934889945453,0 -7.569444333203137,3.3885086863132505 -7.569444333203137,7.569444333203137 s3.388509443257683,7.569444333203137 7.569444333203137,7.569444333203137 h19.680555266328156 v12.111110933125019 zm72.66666559875011,0 v-65.09722126554698 c0,-4.180935646889886 -3.3885086863132505,-7.569444333203137 -7.569444333203137,-7.569444333203137 h-72.66666559875011 c-0.014783881727179074,0 -0.03252438841090731,0.0029566249565491543 -0.04730902708251974,0.0029566249565491543 c-0.014783881727179074,0 -0.03252438841090731,-0.0029566249565491543 -0.04730902708251974,-0.0029566249565491543 h-72.66666559875011 c-0.017740506683728244,0 -0.03252438841090731,0.0029566249565491543 -0.04730902708251974,0.0029566249565491543 c-0.017740506683728244,0 -0.03252438841090731,-0.0029566249565491543 -0.04730902708251974,-0.0029566249565491543 h-72.66666559875011 c-4.180934889945453,0 -7.569444333203137,3.3885086863132505 -7.569444333203137,7.569444333203137 v65.09722126554698 h-25.739067357847215 v-99.91666519828141 h190.74999719671905 c4.180935646889886,0 7.569444333203137,-3.3885086863132505 7.569444333203137,-7.569444333203137 s-3.3885086863132505,-7.569444333203137 -7.569444333203137,-7.569444333203137 h-190.74999719671905 v-15.138888666406274 h284.61110692843795 v15.138888666406274 h-29.015217483311698 c-4.177978264988904,0 -7.569444333203137,3.3885086863132505 -7.569444333203137,7.569444333203137 s3.3914660682142332,7.569444333203137 7.569444333203137,7.569444333203137 h29.015217483311698 v99.91666519828141 zm61.8772507989791,71.15277673210949 h-21.194444132968783 v-357.27777252718806 h21.194444132968783 zm0,0 " id="svg_16" class="" stroke="#ffffff" stroke-opacity="1"/></g><path fill="" fill-opacity="1" stroke="#1a1aeb" stroke-opacity="1" stroke-width="1" stroke-dasharray="none" stroke-linejoin="miter" stroke-linecap="butt" stroke-dashoffset="" fill-rule="nonzero" opacity="1" marker-start="" marker-mid="" marker-end="" d="M401,235 C401,235 402.3425414364641,235 404,235 C405.6574585635359,235 407,235 407,235 C407,235 405.6574585635359,235 404,235 C402.3425414364641,235 401,235 401,235 Z" id="svg_19"/></g></svg>