<svg xmlns="http://www.w3.org/2000/svg" height="665" width="655" style=""><rect id="backgroundrect" width="100%" height="100%" x="0" y="0" fill="none" stroke="none" class="" style=""/><g class="currentLayer" style=""><title>Layer 1</title><path fill="none" stroke="#f4ba32" stroke-opacity="1" stroke-width="35" stroke-dasharray="none" stroke-linejoin="round" stroke-linecap="butt" stroke-dashoffset="" fill-rule="nonzero" opacity="1" marker-start="" marker-mid="" marker-end="" d="M17.5,332.67400554767664 C17.5,158.54472084642907 156.3260396096823,17.50000023841858 327.71621196731473,17.50000023841858 C499.10638432494716,17.50000023841858 637.9324239346295,158.54472084642907 637.9324239346295,332.67400554767664 C637.9324239346295,506.8032902489242 499.10638432494716,647.8480108569347 327.71621196731473,647.8480108569347 C156.3260396096823,647.8480108569347 17.5,506.8032902489242 17.5,332.67400554767664 z" id="svg_21" class=""/><path d="m352.5439147949219,93.86824417114258 l-27.125,-27.125 l-27.125,27.125 v23.032 l19.125,-19.136 v240.979 h16 v-240.979 l19.125,19.136 z" fill="#763a02" id="svg_2" class=""/><path d="m552.7659147949219,422.09024417114256 l-20.6,-10.3 l8.562,25.661 l-211.731,-105.864 a8.008,8.008 0 0 0 -7.156,0 l-211.731,105.863 l8.562,-25.661 l-20.6,10.3 l-12.131,36.393 l36.392,12.131 l20.6,-10.3 l-25.67,-8.548 l208.156,-104.077 l208.154,104.076 l-25.669,8.548 l20.6,10.3 l36.392,-12.13 z" fill="#763a02" id="svg_1" class=""/><path d="m325.4189147949219,314.7432441711426 l-144,-72 v168 l144,72 z" fill="#ffa900" id="svg_3" class=""/><path d="m469.4189147949219,410.7432441711426 l-144,72 v-168 l144,-72 z" fill="#f80" id="svg_4" class=""/><path d="m181.41891479492188,242.74324417114258 l144,-72 l144,72 l-144,72 z" fill="#ff6536" id="svg_5" class=""/><g fill="#763a02" id="svg_6" class=""><path d="m317.4189147949219,234.74324417114258 h16 v16 h-16 z" id="svg_7"/><path d="m317.4189147949219,266.7432441711426 h16 v16 h-16 z" id="svg_8"/><path d="m317.4189147949219,298.7432441711426 h16 v16 h-16 z" id="svg_9"/><path d="m317.4189147949219,170.74324417114258 h16 v16 h-16 z" id="svg_10"/><path d="m317.4189147949219,202.74324417114258 h16 v16 h-16 z" id="svg_11"/><path d="m192.91105979492187,395.8554041711426 h14.302211999999999 v14.305788 h-14.302211999999999 z" id="svg_12"/><path d="m221.5244517949219,381.56001817114264 h14.305788 v14.305788 h-14.305788 z" id="svg_13"/><path d="m307.3594757949219,338.6632611711426 h14.305788 v14.305788 h-14.305788 z" id="svg_14"/><path d="m279.0478827949219,353.13321817114263 h14.32 v14.31821 h-14.32 z" id="svg_15"/><path d="m250.1357147949219,367.2596091711426 h14.305788 v14.305788 h-14.305788 z" id="svg_16"/><path d="m336.8398607949219,353.5058871711426 h7.152894 v7.1511059999999995 h-7.152894 z" id="svg_17"/><path d="m365.46035279492196,367.86681317114255 h7.152894 v7.152894 h-7.152894 z" id="svg_18"/><path d="m423.0729407949219,396.2582761711426 h7.1511059999999995 v7.152 h-7.1511059999999995 z" id="svg_19"/><path d="m394.0697617949219,382.1885501711426 h7.152894 v7.152894 h-7.152894 z" id="svg_20"/></g></g></svg>