<svg xmlns="http://www.w3.org/2000/svg" width="655" height="665"><rect id="backgroundrect" width="100%" height="100%" x="0" y="0" fill="none" stroke="none" class="" style=""/><g class="currentLayer" style=""><title>Layer 1</title><path fill="none" stroke="#f4ba32" stroke-opacity="1" stroke-width="35" stroke-dasharray="none" stroke-linejoin="miter" stroke-linecap="butt" stroke-dashoffset="" fill-rule="nonzero" opacity="1" marker-start="" marker-mid="" marker-end="" d="M18.999997015736547,331.9999939382914 C18.999997015736547,158.51933325009247 157.2817716419725,17.999998092651367 328.0000119212762,17.999998092651367 C498.71825220057985,17.999998092651367 637.0000268268159,158.51933325009247 637.0000268268159,331.9999939382914 C637.0000268268159,505.48065462649043 498.71825220057985,645.9999897839315 328.0000119212762,645.9999897839315 C157.2817716419725,645.9999897839315 18.999997015736547,505.48065462649043 18.999997015736547,331.9999939382914 z" id="svg_8" class=""/><g id="Flat" class=""><path d="M458.17058277130127,513.0743284225464 L407.157139090538,441.04594915628434 a62.92862247562409,64.16956282949448 0 0 1 6.515321170806885,-82.94412018871307 h0 a62.92228461456299,64.16309998703004 0 0 1 88.99624501991272,0 h0 a62.92862247562409,64.16956282949448 0 0 1 6.515321170806885,82.94412018871307 z" style="fill:#02998a" id="svg_1"/><polygon points="318.7376403808594,170.54367065429688 363.1026611328125,170.54367065429688 382.1162414550781,189.9322052001953 382.1162414550781,235.17210388183594 318.7376403808594,235.17210388183594 318.7376403808594,170.54367065429688 " style="fill:#02998a" id="svg_2"/><circle cx="331.4133605957031" cy="248.09779357910156" r="12.675722122192383" style="fill:#784a42" id="svg_3"/><circle cx="191.9804229736328" cy="248.09779357910156" r="12.675722122192383" style="fill:#784a42" id="svg_4"/><rect x="153.9532470703125" y="144.6923065185547" width="177.46011352539062" height="90.47979736328125" style="fill:#fdb62f" id="svg_5"/><rect x="426.9312744140625" y="370.1614990234375" width="63.37860870361328" height="64.62842559814453" rx="5" ry="5" style="fill:#fdb62f" id="svg_6"/><path d="M436.45073291492463,526.0000133514404 h-19.013583183288574 V513.0743284225464 h19.013583183288574 zm-38.02716636657715,0 h-19.013583183288574 V513.0743284225464 h19.013583183288574 zm-38.02716636657715,0 h-19.013583183288574 V513.0743284225464 h19.013583183288574 zm-38.02716636657715,0 h-19.013583183288574 V513.0743284225464 h19.013583183288574 zm-38.02716636657715,0 h-19.013583183288574 V513.0743284225464 h19.013583183288574 zm-38.02716636657715,0 h-19.013583183288574 V513.0743284225464 h19.013583183288574 zm-38.02716636657715,0 H191.98041820526123 c-1.0584227972030642,0 -2.1105077333450324,-0.03877705478668214 -3.1689305305480957,-0.10986832189559939 l0.8809626874923707,-12.925684928894043 C190.46566941165923,513.0743284225464 191.2198748779297,513.0743284225464 191.98041820526123,513.0743284225464 h16.3073165102005 zM167.99795195007323,518.8262582159043 a44.745299091339106,45.62766779899597 0 0 1 -14.957352104187011,-16.370379962444304 L164.15720814704895,496.2709380149841 A32.177320607185365,32.811851191997526 0 0 0 174.8681933403015,507.96868287563325 zM160.29111289978027,480.7601161003113 H147.6153907775879 a44.46009534358978,45.33683988809585 0 0 1 5.4188712072372445,-21.67637362575531 l11.116608301162719,6.197865923404694 A31.797048943519595,32.42408064413071 0 0 0 160.29111289978027,480.7601161003113 zm14.57708044052124,-27.14393835067749 L167.97893836688996,442.71336251211164 A44.24460806751251,45.11710324430466 0 0 1 188.81148767471313,435.64301285600664 l0.8936384096145646,12.886907874107361 A31.63226455593109,32.25604674005508 0 0 0 174.8681933403015,453.6161777496338 zM303.3302991876602,448.4459037780762 h-19.013583183288574 V435.52021884918213 h19.013583183288574 zm-38.02716636657715,0 h-19.013583183288574 V435.52021884918213 h19.013583183288574 zm-38.02716636657715,0 h-19.013583183288574 V435.52021884918213 h19.013583183288574 zm95.6636748561859,-0.2003481163978577 l-1.1851800184249879,-12.873982189178466 a31.689305305480957,32.31421232223511 0 0 0 14.741864828109742,-5.396473457813263 L343.6010683698654,440.69049282073973 A44.47910892677307,45.3562284154892 0 0 1 322.93964131069185,448.24555566167834 zm35.238507499694826,-24.300287666320802 l-11.268716966629029,-5.932889382362366 A31.30269578075409,31.919978931903838 0 0 0 350.426944732666,403.206006526947 v-0.7820039381980904 l12.675722122192383,-0.2649765410423283 v1.182700170993805 A44.36502742767334,45.23989725112915 0 0 1 358.1781488103867,423.94526799535754 zM346.19325354385376,387.04890036582947 A32.13295557975769,32.7666112947464 0 0 0 335.21607818603513,375.6032063612938 l6.610389086723327,-10.986832189559937 A44.605866147994995,45.48548526477814 0 0 1 357.1577531795501,380.58605790138245 zm-25.985230350494383,-16.157106161117554 C319.7390214748383,370.8917942047119 319.2383304510116,370.8917942047119 318.73763942718506,370.8917942047119 H301.5430223684311 V357.96610927581787 H318.73763942718506 c0.7225161609649642,0 1.4386944608688361,0 2.1485348997116094,0.051702739715576325 zM282.5294391851425,370.8917942047119 h-19.013583183288574 V357.96610927581787 h19.013583183288574 zm-38.74334466648102,-0.3037535958290105 A44.47910892677307,45.3562284154892 0 0 1 223.2894518470764,362.4900990009308 L230.64137067794798,351.9879799962044 a31.543534501075747,32.165566945552825 0 0 0 14.608769745826722,5.764855478286744 zM209.09264307022096,345.4411205797195 A43.97208004188538,44.83920101833343 0 0 1 204.6561403274536,325.65189695358276 c0,-0.7238383560180673 0,-1.4476767120361331 0.05070288848876968,-2.1715150680542 l12.675722122192383,0.6462842464447034 c0,0.4976388697624215 -0.03802716636657717,1.0017405819892884 -0.03802716636657717,1.4993794517517092 a31.42945300197601,32.04923578119278 0 0 0 3.1689305305480957,14.134236469745636 zM221.9521631631851,308.84850654602053 l-10.8187288312912,-6.727819005489349 a44.51713609313965,45.395005470275876 0 0 1 15.69254398727417,-15.640078763961792 l6.337861061096191,11.187180305957796 A31.898454720497135,32.527486123561864 0 0 0 221.9521631631851,308.84850654602053 zM248.24794870567322,293.33768463134766 l-0.2661901645660401,-12.925684928894043 l19.1403404045105,0 v12.925684928894043 zM483.52202701568604,293.33768463134766 H476.271513961792 V280.4119997024536 H483.52202701568604 a31.619588833808898,32.24312105512619 0 0 0 9.646224534988404,-1.5252308216094974 l3.853419525146485,12.318177737236024 A44.46009534358978,45.33683988809585 0 0 1 483.52202701568604,293.33768463134766 zm-26.264096237182617,0 h-19.013583183288574 V280.4119997024536 h19.013583183288574 zm-38.02716636657715,0 h-19.013583183288574 V280.4119997024536 h19.013583183288574 zm-38.02716636657715,0 h-19.013583183288574 V280.4119997024536 h19.013583183288574 zm-38.02716636657715,0 h-19.013583183288574 V280.4119997024536 h19.013583183288574 zm-38.02716636657715,0 h-19.013583183288574 V280.4119997024536 h19.013583183288574 zm210.48036583900452,-14.01790530538559 L506.45874619579314,270.3945938825607 A31.7843732213974,32.41115495920181 0 0 0 514.1402338018418,256.4994825839997 l12.244747570037841,3.3412895541191103 A44.472771065711974,45.349765573024754 0 0 1 515.6296311511994,279.31977932596203 zm-1.2992615175247193,-38.83522036886215 A31.689305305480957,32.31421232223511 0 0 0 506.97211294174195,226.36971101474762 l9.38637223148346,-8.698985957145691 a44.49812250995636,45.37561694288254 0 0 1 10.292686363220216,19.776297941207886 zm-20.43960192203522,-22.936627906322478 A31.689305305480957,32.31421232223511 0 0 0 483.52202701568604,215.7835750579834 H477.18416595458984 V202.85789012908936 h6.337861061096191 a44.28897309494018,45.16234314155578 0 0 1 14.513701829910278,2.4752686638832095 zM458.17058277130127,215.7835750579834 H439.1569995880127 V202.85789012908936 h19.013583183288574 zm-38.02716636657715,0 H401.12983322143555 V202.85789012908936 h19.013583183288574 z" style="fill:#f80" id="svg_7"/></g></g></svg>