<svg xmlns="http://www.w3.org/2000/svg" width="42.98" height="23.68" viewBox="0 0 42.98 23.68"><defs><style>.a{isolation:isolate}.b{fill:#fff}</style></defs><title>q</title><g class="a"><path class="b" d="M16.26 3.17a2.26 2.26 0 0 0 0-.59V2q.2-2-7.76-2A22.56 22.56 0 0 0 3 .59Q1 1.07.68 2v.2a1.15 1.15 0 0 0-.15.49 5.71 5.71 0 0 0 0 .59 10.31 10.31 0 0 0-.1 1.46Q0 8.64 0 9.08a1 1 0 0 0 .24.63v.78q0 2 7.81 2a30.21 30.21 0 0 0 5.25-.36 21.18 21.18 0 0 1-.71 5.73q-1.46 4.44-8.89 4a2.21 2.21 0 0 0-1.81.83q-.78.88.63 1 7.27.44 11-3.08 2.78-2.69 2.78-10.25a.7.7 0 0 0-.22-.53.9.9 0 0 0 0-.15V7.04l.15-.93.42-2.11a.74.74 0 0 0-.39-.83zm26.32 0a2.26 2.26 0 0 0 0-.59V2q.15-2-7.81-2a22.56 22.56 0 0 0-5.47.59Q27.29 1.07 27 2v.2a1.15 1.15 0 0 0-.15.49 5.71 5.71 0 0 0 0 .59 10.31 10.31 0 0 0-.1 1.46q-.34 4-.34 4.39a1 1 0 0 0 .24.63v.78q0 2 7.81 2a30.21 30.21 0 0 0 5.25-.36 21.18 21.18 0 0 1-.71 5.73q-1.46 4.44-8.89 4a2.21 2.21 0 0 0-1.81.83q-.78.88.63 1 7.27.44 11-3.08 2.78-2.69 2.78-10.25a.7.7 0 0 0-.22-.53.9.9 0 0 0 0-.15V7.09l.15-.93L43 4a.74.74 0 0 0-.42-.83z"/></g></svg>