<svg xmlns="http://www.w3.org/2000/svg" xmlns:xlink="http://www.w3.org/1999/xlink" version="1.1" style="enable-background:new 0 0 481.74 481.74;" xml:space="preserve" width="655" height="665"><rect id="backgroundrect" width="100%" height="100%" x="0" y="0" fill="none" stroke="none" class="" style=""/>























<g class="currentLayer" style=""><title>Layer 1</title><path fill="none" stroke="#f4ba32" stroke-opacity="1" stroke-width="35" stroke-dasharray="none" stroke-linejoin="miter" stroke-linecap="butt" stroke-dashoffset="" fill-rule="nonzero" opacity="1" marker-start="" marker-mid="" marker-end="" d="M14.333333492279053,332.77777659893036 C14.333333492279053,159.2357273516734 153.41068428524292,18.666667461395264 325.1111173629761,18.666667461395264 C496.81155044070925,18.666667461395264 635.8889012336731,159.2357273516734 635.8889012336731,332.77777659893036 C635.8889012336731,506.3198258461873 496.81155044070925,646.8888857364655 325.1111173629761,646.8888857364655 C153.41068428524292,646.8888857364655 14.333333492279053,506.3198258461873 14.333333492279053,332.77777659893036 z" id="svg_22" class=""/><g class=""><path style="fill:#B3B3B3;" d="M387.97655061495135,431.66099406147003 l-166.7851686477661,-166.7851686477661 c-14.737971427559854,14.737137501716614 -38.6332825397253,14.737137501716614 -53.371253967285156,0 l-6.6714067459106445,-6.6714067459106445 c-14.737137501716614,-14.737971427559854 -14.737137501716614,-38.6332825397253 0,-53.371253967285156 l13.342813491821289,13.342813491821289 c11.0536870521307,11.05201920044422 28.974753423333166,11.05201920044422 40.02844047546387,0 c11.05201920044422,-11.0536870521307 11.05201920044422,-28.974753423333166 0,-40.02844047546387 l-13.342813491821289,-13.342813491821289 c14.737971427559854,-14.737137501716614 38.6332825397253,-14.737137501716614 53.371253967285156,0 l6.6714067459106445,6.6714067459106445 c14.737137501716614,14.737971427559854 14.737137501716614,38.6332825397253 0,53.371253967285156 l166.7851686477661,166.7851686477661 c14.737971427559854,-14.737137501716614 38.6332825397253,-14.737137501716614 53.371253967285156,0 l13.342813491821289,13.342813491821289 c14.737137501716614,14.737971427559854 14.737137501716614,38.6332825397253 0,53.371253967285156 l-13.342813491821289,-13.342813491821289 c-11.0536870521307,-11.05201920044422 -28.974753423333166,-11.05201920044422 -40.02844047546387,0 c-11.05201920044422,11.0536870521307 -11.05201920044422,28.974753423333166 0,40.02844047546387 l13.342813491821289,13.342813491821289 c-14.737971427559854,14.737137501716614 -38.6332825397253,14.737137501716614 -53.371253967285156,0 l-13.342813491821289,-13.342813491821289 C373.2394131132347,470.29427660119535 373.2394131132347,446.3989654890299 387.97655061495135,431.66099406147003 z" id="svg_1" class=""/><path style="fill:#E6E6E6;" d="M501.3904652954323,138.11909724140168 l20.014220237731934,20.014220237731934 l-20.014220237731934,40.02844047546387 h-20.014220237731934 l-146.77094841003418,146.77094841003418 l-20.014220237731934,-20.014220237731934 l146.77094841003418,-146.77094841003418 v-20.014220237731934 L501.3904652954323,138.11909724140168 z" id="svg_2" class=""/><path style="fill:#6CBBC7;" d="M314.59107640993426,398.3039603319168 c-3.6842843754291534,-3.6834504495859144 -3.6851183012723925,-9.656027338862419 -0.001667851686477662,-13.34114564013481 c0.000833925843238831,-0.000833925843238831 0.001667851686477662,-0.001667851686477662 0.001667851686477662,-0.001667851686477662 l6.6714067459106445,-6.6714067459106445 c3.6834504495859144,-3.6842843754291534 9.656027338862419,-3.6851183012723925 13.34114564013481,-0.001667851686477662 c0.000833925843238831,0.000833925843238831 0.001667851686477662,0.001667851686477662 0.001667851686477662,0.001667851686477662 l20.014220237731934,-20.014220237731934 l-53.371253967285156,-53.371253967285156 l-20.014220237731934,20.014220237731934 c3.6842843754291534,3.6834504495859144 3.6851183012723925,9.656027338862419 0.001667851686477662,13.34114564013481 c-0.000833925843238831,0.000833925843238831 -0.001667851686477662,0.001667851686477662 -0.001667851686477662,0.001667851686477662 l-6.6714067459106445,6.6714067459106445 c-3.6834504495859144,3.6842843754291534 -9.656027338862419,3.6851183012723925 -13.34114564013481,0.001667851686477662 c-0.000833925843238831,-0.000833925843238831 -0.001667851686477662,-0.001667851686477662 -0.001667851686477662,-0.001667851686477662 L145.5176152483208,460.63491355895997 c-7.077528631567955,7.077528631567955 -11.054520977973938,16.676849013090134 -11.054520977973938,26.685626983642578 c0,20.843142525911333 16.897005435705186,37.740147961616515 37.740147961616515,37.740147961616515 c0,0 0,0 0,0 c10.008777970552446,0 19.608098352074624,-3.976992346405983 26.685626983642578,-11.054520977973938 L314.59107640993426,398.3039603319168 z" id="svg_3" class=""/><path id="SVGCleanerId_0" d="M156.42786705541442,473.6491602685452 l100.07026726281643,-100.07026726281643 l9.435036990404129,9.435036990404129 L165.8620701199753,483.08419725894925 L156.42786705541442,473.6491602685452 z" class=""/><path id="SVGCleanerId_1" d="M176.44625692236255,493.6633805062771 l100.07026726281643,-100.07026726281643 l9.435036990404129,9.435036990404129 L185.88129391276667,503.0984174966812 L176.44625692236255,493.6633805062771 z" class=""/><g id="svg_4" class="">
	<path id="SVGCleanerId_0_1_" d="M156.42786705541442,473.6491602685452 l100.07026726281643,-100.07026726281643 l9.435036990404129,9.435036990404129 L165.8620701199753,483.08419725894925 L156.42786705541442,473.6491602685452 z"/>
</g><g id="svg_5" class="">
	<path id="SVGCleanerId_1_1_" d="M176.44625692236255,493.6633805062771 l100.07026726281643,-100.07026726281643 l9.435036990404129,9.435036990404129 L185.88129391276667,503.0984174966812 L176.44625692236255,493.6633805062771 z"/>
</g><path d="M486.0929296270593,386.9158690166473 c-15.53270275616646,-15.498511796593666 -40.0484546957016,-17.351495020270345 -57.734353979110715,-4.363100011825562 l-60.969986250877376,-60.969986250877376 l116.74961805343628,-116.74961805343628 h21.348501586914065 l24.01706428527832,-48.03412857055664 L502.72474664461447,129.99999523162842 l-48.03412857055664,24.01039287853241 v21.348501586914065 l-116.74961805343628,116.74961805343628 l-67.64139299678801,-67.61470736980438 c12.98505930507183,-17.686733209252356 11.132910007238388,-42.19998337125778 -4.363100011825562,-57.734353979110715 l-6.6714067459106445,-6.6714067459106445 c-17.353996797800065,-17.316470134854317 -45.45062630820274,-17.316470134854317 -62.80462310600281,0 l-4.7166845693588275,4.7166845693588275 l18.059498061180115,18.059498061180115 c8.352601245880127,8.544404189825059 8.197491039037704,22.24247009086609 -0.346913150787354,30.59507133674622 c-8.40764035153389,8.219173110961915 -21.840517834424972,8.219173110961915 -30.24815818595886,0 L161.14872125398944,195.39979556179048 l-4.7166845693588275,4.7166845693588275 c-17.316470134854317,17.353996797800065 -17.316470134854317,45.45062630820274 0,62.80462310600281 l6.6714067459106445,6.6714067459106445 c15.536872385382653,15.490172538161277 40.045952918171885,17.34232183599472 57.734353979110715,4.363100011825562 l55.67956070137024,55.67956070137024 c1.0765982636213303,1.0782661153078081 1.0765982636213303,2.824506831049919 0,3.902772946357727 l-6.6714067459106445,6.6714067459106445 c-1.077432189464569,1.0799339669942856 -2.826174682736397,1.0807678928375244 -3.9061086497306827,0.0033357033729553317 c-0.000833925843238831,-0.000833925843238831 -0.0025017775297164965,-0.0025017775297164965 -0.0033357033729553317,-0.0033357033729553317 l-4.7166845693588275,-4.710013162612915 l-120.41889176368714,120.41889176368714 c-17.344823613524436,17.34315576183796 -17.346491465210914,45.46313519585133 -0.0033357033729553317,62.80795880937576 s45.46313519585133,17.346491465210914 62.80795880937576,0.0033357033729553317 l0,0 l120.41889176368714,-120.42556317043304 l-4.7166845693588275,-4.7166845693588275 c-1.0765982636213303,-1.0782661153078081 -1.0765982636213303,-2.824506831049919 0,-3.902772946357727 l6.6714067459106445,-6.6714067459106445 c1.077432189464569,-1.0799339669942856 2.826174682736397,-1.0807678928375244 3.9061086497306827,-0.0033357033729553317 c0.000833925843238831,0.000833925843238831 0.0025017775297164965,0.0025017775297164965 0.0033357033729553317,0.0033357033729553317 l49.00148254871368,49.0081539554596 c-12.98505930507183,17.686733209252356 -11.132910007238388,42.19998337125778 4.363100011825562,57.734353979110715 l13.342813491821289,13.342813491821289 c17.353996797800065,17.316470134854317 45.45062630820274,17.316470134854317 62.80462310600281,0 l4.723355976104736,-4.723355976104736 L446.06448915159535,480.3155634593963 c-8.352601245880127,-8.544404189825059 -8.196657113194465,-22.24247009086609 0.3477470766305924,-30.59507133674622 c8.40764035153389,-8.218339185118676 21.839683908581733,-8.218339185118676 30.247324260115626,0 l18.059498061180115,18.059498061180115 l4.7166845693588275,-4.7166845693588275 c17.316470134854317,-17.353996797800065 17.316470134854317,-45.45062630820274 0,-62.80462310600281 L486.0929296270593,386.9158690166473 zM468.0334315658791,180.90950010967254 v-18.679938888549803 l32.022752380371095,-16.011376190185548 l13.209385356903075,13.209385356903075 l-16.011376190185548,32.022752380371095 h-18.679938888549803 l-120.61903396606444,120.69909084701537 l-4.7166845693588275,4.7166845693588275 l-15.29753566837311,15.29753566837311 l-10.580851099014282,-10.580851099014282 l15.29753566837311,-15.29753566837311 l4.7166845693588275,-4.7166845693588275 L468.0334315658791,180.90950010967254 zM216.47469739782642,260.15914084434513 c-12.141960277557374,12.111105021357536 -31.79592455101013,12.111105021357536 -43.937884828567505,0 l-6.6714067459106445,-6.6714067459106445 c-10.290644905567168,-10.321500161767007 -12.040221324682236,-26.401258271098136 -4.2096576566696156,-38.69415912628174 l8.119102009773256,8.112430603027343 c13.467902368307113,13.849006478667258 35.612803135514255,14.158392966508867 49.46180961418152,0.6904905982017518 s14.158392966508867,-35.612803135514255 0.6904905982017518,-49.46180961418152 c-0.22682782936096194,-0.233499236106873 -0.4569913620948795,-0.46366276884079016 -0.6904905982017518,-0.6904905982017518 l-8.119102009773256,-8.125773416519165 c12.291233003497124,-7.832231519699096 28.370991112828257,-6.085156878113747 38.69415912628174,4.202986249923706 l6.6714067459106445,6.6714067459106445 c12.111105021357536,12.141960277557374 12.111105021357536,31.79592455101013 0,43.937884828567505 l-4.696670349121093,4.7166845693588275 l76.72117757797241,76.72117757797241 l-10.580851099014282,10.580851099014282 l-16.67851686477661,-16.67851686477661 l-20.014220237731934,20.014220237731934 l-60.0426607131958,-60.0426607131958 L216.47469739782642,260.15914084434513 zM316.54579858648606,373.57305552482603 l-6.6714067459106445,6.6714067459106445 c-4.459835409641266,4.469842519760132 -5.906696747660637,11.128740378022194 -3.702630743980408,17.045444235801696 L194.17218464624713,509.28948295688633 c-12.132787093281745,12.132787093281745 -31.805097735285763,12.132787093281745 -43.937884828567505,0 c-12.132787093281745,-12.132787093281745 -12.132787093281745,-31.805097735285763 0,-43.937884828567505 l112.00624785709383,-112.01291926383972 c5.913368154406547,2.207401707053185 12.57143208682537,0.7638760724067696 17.038772829055784,-3.695959337234499 l6.6714067459106445,-6.6714067459106445 c4.482351407408714,-4.444824744462967 5.918371709465981,-11.116231490373611 3.662602303504944,-17.01208720207214 l11.634933364868164,-11.621590551376343 l7.245147726058961,7.245147726058961 l4.7166845693588275,4.7166845693588275 l4.7166845693588275,4.7166845693588275 l10.580851099014282,10.580851099014282 l4.7166845693588275,4.7166845693588275 l4.7166845693588275,4.7166845693588275 l7.245147726058961,7.245147726058961 l-11.634933364868164,11.634933364868164 C327.65452474427053,367.70305151426794 321.01230540287327,369.1340682612658 316.54579858648606,373.57305552482603 L316.54579858648606,373.57305552482603 zM494.2120316368324,448.3995535869598 l-8.119102009773256,-8.112430603027343 c-13.467902368307113,-13.849006478667258 -35.612803135514255,-14.157559040665626 -49.46180961418152,-0.6896566723585152 s-14.157559040665626,35.612803135514255 -0.6896566723585152,49.46180961418152 c0.22682782936096194,0.23266531026363368 0.45615743625164035,0.46282884299755167 0.6896566723585152,0.6896566723585152 l8.119102009773256,8.112430603027343 c-12.291233003497124,7.832231519699096 -28.370991112828257,6.085156878113747 -38.69415912628174,-4.202986249923706 l-13.342813491821289,-13.342813491821289 c-12.111105021357536,-12.141960277557374 -12.111105021357536,-31.79592455101013 0,-43.937884828567505 l4.696670349121093,-4.7166845693588275 l-53.371253967285156,-53.371253967285156 l20.014220237731934,-20.014220237731934 l-16.67851686477661,-16.67851686477661 l10.580851099014282,-10.580851099014282 l70.04977083206177,70.04977083206177 l4.7166845693588275,-4.7166845693588275 c12.141960277557374,-12.111105021357536 31.79592455101013,-12.111105021357536 43.937884828567505,0 l13.342813491821289,13.342813491821289 C500.30052421831914,420.0152196606398 502.0501006374343,436.10415095424656 494.2120316368324,448.3995535869598 L494.2120316368324,448.3995535869598 z" id="svg_6" class=""/><g id="svg_7" class="">
</g><g id="svg_8" class="">
</g><g id="svg_9" class="">
</g><g id="svg_10" class="">
</g><g id="svg_11" class="">
</g><g id="svg_12" class="">
</g><g id="svg_13" class="">
</g><g id="svg_14" class="">
</g><g id="svg_15" class="">
</g><g id="svg_16" class="">
</g><g id="svg_17" class="">
</g><g id="svg_18" class="">
</g><g id="svg_19" class="">
</g><g id="svg_20" class="">
</g><g id="svg_21" class="">
</g></g></g></svg>