<svg xmlns="http://www.w3.org/2000/svg" xmlns:xlink="http://www.w3.org/1999/xlink" version="1.1" style="enable-background:new 0 0 512 512;" xml:space="preserve" width="655" height="665"><rect id="backgroundrect" width="100%" height="100%" x="0" y="0" fill="none" stroke="none" class="" style=""/>



















<g class="currentLayer" style=""><title>Layer 1</title><path fill="none" stroke="#f4ba32" stroke-opacity="1" stroke-width="35" stroke-dasharray="none" stroke-linejoin="miter" stroke-linecap="butt" stroke-dashoffset="" fill-rule="nonzero" opacity="1" marker-start="" marker-mid="" marker-end="" d="M17,332.0000035762787 C17,157.9668524291634 155.7292783536964,17 326.99999237060547,17 C498.27070638751456,17 636.9999847412109,157.9668524291634 636.9999847412109,332.0000035762787 C636.9999847412109,506.033154723394 498.27070638751456,647.0000071525574 326.99999237060547,647.0000071525574 C155.7292783536964,647.0000071525574 17,506.033154723394 17,332.0000035762787 z" id="svg_20" class=""/><g id="svg_5">
</g><g id="svg_6">
</g><g id="svg_7">
</g><g id="svg_8">
</g><g id="svg_9">
</g><g id="svg_10">
</g><g id="svg_11">
</g><g id="svg_12">
</g><g id="svg_13">
</g><g id="svg_14">
</g><g id="svg_15">
</g><g id="svg_16">
</g><g id="svg_17">
</g><g id="svg_18">
</g><g id="svg_19">
</g><g class=""><path style="fill:#FFDB0C;" d="M330.4999958021626,559.3183365573423 L330.4999958021626,559.3183365573423 c114.13472661206626,-42.69624928088592 189.77599598084615,-151.75396389418788 189.77599598084615,-273.6120562005443 V211.8494001423955 c-39.129105028133274,0 -70.84940014239548,-31.720295114262218 -70.84940014239548,-70.84940014239548 H330.4999958021626 H211.5733999637119 c0,39.129105028133274 -31.720295114262218,70.84940014239548 -70.84940014239548,70.84940014239548 v73.8560631864014 C140.7239998213164,407.5643726631544 216.3652691900963,516.6220872764563 330.4999958021626,559.3183365573423 L330.4999958021626,559.3183365573423 z" id="svg_1" class=""/><path style="fill:#FBBF00;" d="M330.4999958021626,559.3183365573423 L330.4999958021626,559.3183365573423 c114.13472661206626,-42.69624928088592 189.77599598084615,-151.75396389418788 189.77599598084615,-273.6120562005443 V211.8494001423955 c-39.129105028133274,0 -70.84940014239548,-31.720295114262218 -70.84940014239548,-70.84940014239548 H330.4999958021626 C330.4999958021626,141 330.4999958021626,466.17714443324655 330.4999958021626,559.3183365573423 L330.4999958021626,559.3183365573423 z" id="svg_2" class=""/><polygon style="fill:#F1F1F2;" points="304.0625915527344,423.9212951660156 241.14981079101562,361.0093078613281 275.81304931640625,326.3452453613281 304.0625915527344,354.59478759765625 385.1869201660156,273.470458984375 419.8501892089844,308.1336669921875 " id="svg_3" class=""/><polygon style="fill:#E6E6E6;" points="330.5,397.48388671875 330.5,328.1574401855469 385.1869201660156,273.470458984375 419.8501892089844,308.1336669921875 " id="svg_4" class=""/></g></g></svg>