<?xml version="1.0" standalone="no"?>
<!DOCTYPE svg PUBLIC "-//W3C//DTD SVG 20010904//EN"
 "http://www.w3.org/TR/2001/REC-SVG-20010904/DTD/svg10.dtd">
<svg version="1.0" xmlns="http://www.w3.org/2000/svg"
 width="150.000000pt" height="150.000000pt" viewBox="0 0 150.000000 150.000000"
 preserveAspectRatio="xMidYMid meet">
<metadata>
Created by potrace 1.11, written by Peter Selinger 2001-2013
</metadata>
<g transform="translate(0.000000,150.000000) scale(0.100000,-0.100000)"
fill="#000000" stroke="none">
<path d="M370 1361 c-8 -5 -52 -11 -98 -14 -45 -3 -89 -11 -97 -17 -9 -7 -15
-29 -15 -51 0 -21 -5 -41 -11 -44 -21 -13 -28 -49 -13 -72 8 -14 11 -34 7 -53
-8 -41 12 -76 49 -89 l30 -11 -21 -33 c-11 -18 -54 -109 -96 -203 -42 -93 -83
-179 -91 -191 -24 -38 -18 -46 32 -38 l45 6 -20 -40 c-12 -22 -31 -47 -43 -55
-21 -15 -21 -16 -3 -16 11 0 49 9 84 20 35 11 66 19 68 16 7 -7 -53 -130 -70
-145 -9 -7 -17 -17 -17 -22 0 -17 37 -8 109 26 86 41 94 38 85 -40 -5 -41 -2
-53 13 -67 47 -42 128 -59 209 -44 38 8 45 6 75 -23 31 -30 33 -31 52 -14 34
31 77 137 77 190 0 16 4 21 15 17 9 -4 15 -19 15 -41 0 -23 8 -42 25 -59 28
-28 38 -26 58 16 13 26 13 31 0 41 -12 10 -2 24 60 88 41 42 94 101 117 131
23 30 43 55 45 55 1 0 35 -40 77 -90 41 -49 82 -96 91 -104 10 -8 17 -28 17
-48 0 -35 0 -35 18 -14 15 20 19 20 37 8 16 -13 17 -17 6 -31 -9 -10 -22 -14
-35 -11 -20 6 -20 5 3 -14 31 -28 34 -27 53 14 15 33 14 35 -6 48 -20 14 -17
18 86 129 l108 116 -20 162 c-22 177 -64 386 -81 407 -16 18 -39 16 -39 -3 0
-16 -106 -124 -121 -124 -10 0 -154 190 -161 211 -6 18 -55 3 -63 -20 -6 -21
-128 -141 -143 -141 -6 0 -45 38 -88 85 -64 70 -83 85 -103 83 -15 -2 -26 2
-26 9 0 6 -3 14 -6 18 -6 5 -95 -6 -166 -21 -19 -4 -23 0 -23 21 0 26 -28 90
-36 83 -2 -3 3 -19 12 -36 15 -31 12 -86 -5 -96 -16 -10 -51 7 -51 25 0 18 -1
19 -25 3 -43 -28 -105 2 -105 52 0 22 4 24 43 24 38 1 142 38 107 39 -8 0 -22
-3 -30 -8z m-146 -66 c7 -34 46 -75 72 -75 21 0 17 -18 -6 -25 -28 -9 -96 32
-110 66 -15 34 -5 69 20 69 12 0 20 -10 24 -35z m294 -92 c-6 -21 -43 -156
-83 -301 -40 -144 -74 -264 -76 -266 -6 -4 -302 -56 -305 -53 -2 2 164 368
184 403 6 12 25 24 41 27 36 7 61 49 61 100 0 19 3 49 6 67 7 32 8 32 50 26
30 -4 45 -1 54 9 6 7 24 16 38 18 15 2 30 5 34 6 3 0 2 -16 -4 -36z m-312 2
c18 -14 45 -25 61 -25 42 0 61 -15 47 -37 -16 -26 -53 -27 -103 -1 -50 26 -67
47 -58 72 8 21 14 20 53 -9z m581 -90 l60 -70 -9 -145 c-9 -157 -32 -378 -49
-477 l-11 -62 -46 35 c-26 19 -78 57 -117 85 l-70 51 69 282 c87 360 96 390
105 380 4 -5 35 -40 68 -79z m359 -27 l68 -93 13 -100 c7 -55 16 -190 20 -299
l6 -199 -54 59 c-30 32 -70 81 -89 108 l-35 48 0 284 c0 156 1 284 2 284 1 0
32 -42 69 -92z m-866 12 c60 0 48 -53 -14 -64 -61 -12 -111 31 -93 79 5 13 10
13 41 0 20 -8 49 -15 66 -15z m1154 -215 c14 -77 28 -171 31 -210 l6 -70 -95
-100 -95 -100 -1 125 c0 69 -7 198 -16 288 l-16 164 68 69 69 69 12 -48 c7
-26 24 -110 37 -187z m-1052 -342 c46 -28 46 -29 40 2 -3 19 0 25 12 25 30 0
55 -20 75 -58 12 -22 20 -30 21 -19 0 9 3 17 8 17 11 0 98 -77 92 -83 -3 -3
-24 -2 -47 3 -24 4 -43 4 -43 0 0 -4 30 -11 68 -16 l67 -9 -2 -58 c-2 -63 -46
-177 -69 -177 -7 0 -20 10 -28 22 -15 21 -17 21 -72 8 -45 -11 -65 -11 -102
-1 -78 20 -97 40 -99 102 -1 30 -4 99 -7 153 -8 134 1 143 86 89z m-212 -4
c-25 -12 -56 -25 -70 -30 l-25 -10 21 21 c12 12 37 26 55 30 59 14 65 10 19
-11z m90 -66 c-1 -5 -24 -26 -51 -47 l-51 -39 21 41 c11 22 29 43 38 45 29 8
43 7 43 0z m550 -177 c0 -7 -6 -19 -13 -25 -17 -13 -54 10 -43 27 10 17 56 15
56 -2z"/>
</g>
</svg>
